<svg xmlns="http://www.w3.org/2000/svg" width="420mm" height="297mm" viewBox="0 0 420 297" role="img" aria-label="KS-30 KUMPF / VARIANTEN A–B"><title>KS-30 KUMPF / VARIANTEN A–B</title><desc>Prüfzeichnung, nicht zur Fertigung. Geometrie aus src/workbench/geometry.mjs; offene Maße bleiben leer.</desc><defs><marker id="arrow" markerWidth="5" markerHeight="5" refX="4" refY="2.5" orient="auto-start-reverse"><path d="M0 0L5 2.5L0 5Z"/></marker></defs><rect width="420" height="297" fill="white"/><rect x="8" y="8" width="404" height="281" fill="none" stroke="#111" stroke-width=".5"/><g font-family="Arial,sans-serif" fill="#111"><text x="14" y="19" font-size="5" font-weight="bold">KLEINES SCHÄFERRAD · KUMPF / VARIANTEN A–B</text><text x="14" y="27" font-size="3.5">PRÜFZEICHNUNG · NICHT ZUR FERTIGUNG / NICHT MASSHALTIG</text><text x="14" y="37" font-size="3.5">VARIANTE A · 24 mm HIST.</text><rect x="14" y="41" width="193" height="144" fill="none" stroke="#bbb" stroke-width=".18"/><path d="M110.5,44V182M17,113H204" fill="none" stroke="#777" stroke-width=".18" stroke-dasharray="5 1 1 1"/><path d="" fill="none" stroke="#888" stroke-width="0.18" stroke-dasharray="2 1"/><path d="M143.72,172.20L150.35,164.68M143.72,70.81L150.35,63.29M138.74,69.54L144.37,63.15M138.74,165.16L144.37,158.77M150.35,164.68L146.29,156.90M150.35,63.29L150.35,164.68M150.35,63.29L146.29,55.51M144.37,63.15L140.93,56.53M144.37,158.77L144.37,63.15M144.37,158.77L140.93,152.15M146.29,156.90L132.65,150.93M146.29,55.51L146.29,156.90M146.29,55.51L132.65,49.54M140.93,56.53L129.33,51.46M140.93,152.15L140.93,56.53M140.93,152.15L129.33,147.09M132.65,150.93L113.07,148.39M132.65,49.54L132.65,150.93M132.65,49.54L113.07,47.00M129.33,51.46L112.68,49.30M129.33,147.09L129.33,51.46M129.33,147.09L112.68,144.92M113.07,148.39L92.80,149.94M113.07,47.00L113.07,148.39M113.07,47.00L92.80,48.56M112.68,49.30L95.46,50.62M112.68,144.92L112.68,49.30M112.68,144.92L95.46,146.25M92.80,149.94L77.28,155.19M92.80,48.56L92.80,149.94M92.80,48.56L77.28,53.80M95.46,50.62L82.26,55.07M95.46,146.25L95.46,50.62M95.46,146.25L82.26,150.70M77.28,155.19L70.65,162.71M77.28,53.80L77.28,155.19M77.28,53.80L70.65,61.32M82.26,55.07L76.63,61.47M82.26,150.70L82.26,55.07M82.26,150.70L76.63,157.09M70.65,162.71L74.71,170.49M70.65,61.32L70.65,162.71M70.65,61.32L74.71,69.10M76.63,61.47L80.07,68.08M76.63,157.09L76.63,61.47M76.63,157.09L80.07,163.71M74.71,170.49L88.35,176.46M74.71,69.10L74.71,170.49M74.71,69.10L88.35,75.07M80.07,68.08L91.67,73.15M80.07,163.71L80.07,68.08M80.07,163.71L91.67,168.78M88.35,176.46L107.93,179.00M88.35,75.07L88.35,176.46M88.35,75.07L107.93,77.61M91.67,73.15L108.32,75.32M91.67,168.78L91.67,73.15M91.67,168.78L108.32,170.94M107.93,179.00L128.20,177.44M107.93,77.61L107.93,179.00M107.93,77.61L128.20,76.06M108.32,75.32L125.54,73.99M108.32,170.94L108.32,75.32M108.32,170.94L125.54,169.62M128.20,177.44L143.72,172.20M128.20,76.06L128.20,177.44M143.72,172.20L143.72,70.81M128.20,76.06L143.72,70.81M125.54,73.99L138.74,69.54M125.54,169.62L125.54,73.99M138.74,69.54L138.74,165.16M125.54,169.62L138.74,165.16" fill="none" stroke="#171717" stroke-width="0.32" /><text x="213" y="37" font-size="3.5">VARIANTE B · 22 mm HIST.</text><rect x="213" y="41" width="193" height="144" fill="none" stroke="#bbb" stroke-width=".18"/><path d="M309.5,44V182M216,113H403" fill="none" stroke="#777" stroke-width=".18" stroke-dasharray="5 1 1 1"/><path d="" fill="none" stroke="#888" stroke-width="0.18" stroke-dasharray="2 1"/><path d="M342.72,172.20L349.35,164.68M342.72,70.81L349.35,63.29M338.16,69.64L343.87,63.16M338.16,165.27L343.87,158.78M349.35,164.68L345.29,156.90M349.35,63.29L349.35,164.68M349.35,63.29L345.29,55.51M343.87,63.16L340.37,56.44M343.87,158.78L343.87,63.16M343.87,158.78L340.37,152.07M345.29,156.90L331.65,150.93M345.29,55.51L345.29,156.90M345.29,55.51L331.65,49.54M340.37,56.44L328.60,51.30M340.37,152.07L340.37,56.44M340.37,152.07L328.60,146.93M331.65,150.93L312.07,148.39M331.65,49.54L331.65,150.93M331.65,49.54L312.07,47.00M328.60,51.30L311.72,49.10M328.60,146.93L328.60,51.30M328.60,146.93L311.72,144.73M312.07,148.39L291.80,149.94M312.07,47.00L312.07,148.39M312.07,47.00L291.80,48.56M311.72,49.10L294.23,50.45M311.72,144.73L311.72,49.10M311.72,144.73L294.23,146.07M291.80,149.94L276.28,155.19M291.80,48.56L291.80,149.94M291.80,48.56L276.28,53.80M294.23,50.45L280.84,54.97M294.23,146.07L294.23,50.45M294.23,146.07L280.84,150.59M276.28,155.19L269.65,162.71M276.28,53.80L276.28,155.19M276.28,53.80L269.65,61.32M280.84,54.97L275.13,61.45M280.84,150.59L280.84,54.97M280.84,150.59L275.13,157.08M269.65,162.71L273.71,170.49M269.65,61.32L269.65,162.71M269.65,61.32L273.71,69.10M275.13,61.45L278.63,68.17M275.13,157.08L275.13,61.45M275.13,157.08L278.63,163.80M273.71,170.49L287.35,176.46M273.71,69.10L273.71,170.49M273.71,69.10L287.35,75.07M278.63,68.17L290.40,73.31M278.63,163.80L278.63,68.17M278.63,163.80L290.40,168.94M287.35,176.46L306.93,179.00M287.35,75.07L287.35,176.46M287.35,75.07L306.93,77.61M290.40,73.31L307.28,75.51M290.40,168.94L290.40,73.31M290.40,168.94L307.28,171.13M306.93,179.00L327.20,177.44M306.93,77.61L306.93,179.00M306.93,77.61L327.20,76.06M307.28,75.51L324.77,74.16M307.28,171.13L307.28,75.51M307.28,171.13L324.77,169.79M327.20,177.44L342.72,172.20M327.20,76.06L327.20,177.44M342.72,172.20L342.72,70.81M327.20,76.06L342.72,70.81M324.77,74.16L338.16,69.64M324.77,169.79L324.77,74.16M338.16,69.64L338.16,165.27M324.77,169.79L338.16,165.27" fill="none" stroke="#171717" stroke-width="0.32" /><path d="M22 193H190" stroke="#111" stroke-width=".25" marker-start="url(#arrow)" marker-end="url(#arrow)"/><path d="M22 187V198M190 187V198" stroke="#111" stroke-width=".18"/><rect x="68" y="188" width="83" height="9" fill="white"/><text x="71" y="194" font-size="3.5">IST-MASS 2026: ______ mm ± ____</text><text x="214" y="193" font-size="3.3">Endpunkt A: __________  B: __________</text><text x="214" y="200" font-size="3.3">Werkzeug / Person / Datum: __________________</text><text x="14" y="210" font-size="3.3">A: Wand 24 mm (CLAIM-0040); B: 22 mm (CLAIM-0041), historisch</text><text x="14" y="217" font-size="3.3">Außenform, Höhe, Bodenlage und Orientierung schematisch</text><text x="14" y="224" font-size="3.3">Ringlängenvarianten bleiben offen; keine Pass-/Fertigungsfreigabe</text><text x="14" y="233" font-size="3">Quellen: PHOTO-6823 / 6846; CONFLICT-01 / 02; GAP-04</text><text x="14" y="239" font-size="3">Alle Render-Parameter: data/hypothesis.parameters.json · aktuelle Maße null; Unsicherheitsbereiche unbekannt.</text><text x="14" y="243" font-size="2.7">Drahtprojektion: verdeckte Kanten nicht getrennt; keine Normkonformität behauptet.</text><path d="M8 245H412M265 245V289M8 270H265M265 270H412" stroke="#111" fill="none" stroke-width=".5"/><text x="14" y="252" font-size="3.5">NOTIZEN / WIDERSPRUCH / REALE TEIL-ID:</text><text x="14" y="267" font-size="3">_______________________________________________________________________</text><text x="14" y="278" font-size="3.2">Kurzcode: KS-30 · /kleines-schaeferrad/werkstatt/#drawings</text><path d="M14 285H64M14 283V287M64 283V287" stroke="#111" stroke-width=".25"/><text x="69" y="286" font-size="3">50 mm Druckkontrolle · 100 % drucken</text><text x="271" y="255" font-size="6" font-weight="bold">KS-30</text><text x="271" y="263" font-size="3.5">Rev. A0 · Blatt 1/1 · A3 quer</text><text x="271" y="278" font-size="3.1">2026-10-07 · Maßstab: ohne Maßfreigabe</text><text x="271" y="285" font-size="3.1">HYPOTHESE / OFFENE FELDPRÜFUNG</text></g></svg>